<svg width="128" height="128" viewBox="0 0 128 128" fill="none" xmlns="http://www.w3.org/2000/svg">
<path d="M16 128C7.16344 128 -0.23643 120.593 3.06238 112.395C6.14473 104.736 11.4819 97.692 18.7452 91.8977C30.7475 82.3228 47.0261 76.9436 64 76.9436C80.9739 76.9436 97.2525 82.3228 109.255 91.8977C116.518 97.692 121.855 104.736 124.938 112.395C128.236 120.593 120.837 128 112 128H16Z" fill="white"/>
<path fill-rule="evenodd" clip-rule="evenodd" d="M21 0C9.40202 0 0 9.40202 0 21V38.9109C0 55.4794 13.4315 68.9109 30 68.9109H98C114.569 68.9109 128 55.4794 128 38.9109V21C128 9.40202 118.598 0 107 0H21ZM45.739 43.8974C48.7044 40.9409 50.3704 36.9311 50.3704 32.75C50.3704 28.5689 48.7044 24.5591 45.739 21.6026C42.7735 18.6462 38.7515 16.9852 34.5578 16.9852C30.364 16.9852 26.342 18.6462 23.3766 21.6026C20.4111 24.5591 18.7452 28.5689 18.7452 32.75C18.7452 36.9311 20.4111 40.9409 23.3766 43.8974C26.342 46.8538 30.364 48.5148 34.5578 48.5148C38.7515 48.5148 42.7735 46.8538 45.739 43.8974ZM76.7998 36.75C74.3449 36.75 72.3548 34.7599 72.3548 32.305C72.3548 29.8502 74.3449 27.8601 76.7998 27.8601H104.81C107.265 27.8601 109.255 29.8502 109.255 32.305C109.255 34.7599 107.265 36.75 104.81 36.75H76.7998Z" fill="white"/>
</svg>
