<svg width="128" height="141" viewBox="0 0 128 141" fill="none" xmlns="http://www.w3.org/2000/svg">
<path d="M16 141C7.16344 141 -0.19778 133.726 2.00132 125.168C4.82496 114.179 10.5629 104.04 18.7452 95.8821C30.7475 83.9161 47.0261 77.1936 64 77.1936C80.9739 77.1936 97.2525 83.9161 109.255 95.8821C117.437 104.04 123.175 114.179 125.999 125.168C128.198 133.726 120.837 141 112 141H16Z" fill="#D9D9D9"/>
<path fill-rule="evenodd" clip-rule="evenodd" d="M21 0C9.40202 0 0 9.40202 0 21V38.9109C0 55.4794 13.4315 68.9109 30 68.9109H98C114.569 68.9109 128 55.4794 128 38.9109V21C128 9.40202 118.598 0 107 0H21ZM45.739 43.8974C48.7044 40.9409 50.3704 36.9311 50.3704 32.75C50.3704 28.5689 48.7044 24.5591 45.739 21.6026C42.7735 18.6462 38.7515 16.9852 34.5578 16.9852C30.364 16.9852 26.342 18.6462 23.3766 21.6026C20.4111 24.5591 18.7452 28.5689 18.7452 32.75C18.7452 36.9311 20.4111 40.9409 23.3766 43.8974C26.342 46.8538 30.364 48.5148 34.5578 48.5148C38.7515 48.5148 42.7735 46.8538 45.739 43.8974ZM76.7998 36.75C74.3449 36.75 72.3548 34.7599 72.3548 32.305C72.3548 29.8502 74.3449 27.8601 76.7998 27.8601H104.81C107.265 27.8601 109.255 29.8502 109.255 32.305C109.255 34.7599 107.265 36.75 104.81 36.75H76.7998Z" fill="#D9D9D9"/>
</svg>
